<?xml version="1.0" standalone="no"?>
<!DOCTYPE svg PUBLIC "-//W3C//DTD SVG 20010904//EN"
 "http://www.w3.org/TR/2001/REC-SVG-20010904/DTD/svg10.dtd">
<svg version="1.0" xmlns="http://www.w3.org/2000/svg"
 width="1024.000000pt" height="1024.000000pt" viewBox="0 0 1024.000000 1024.000000"
 preserveAspectRatio="xMidYMid meet">

<g transform="translate(0.000000,1024.000000) scale(0.100000,-0.100000)"
fill="#000000" stroke="none">
<path d="M4845 10229 c-1008 -55 -1973 -404 -2781 -1006 -387 -289 -758 -660
-1047 -1047 -961 -1288 -1258 -2951 -806 -4498 170 -580 443 -1127 806 -1614
289 -387 660 -758 1047 -1047 1288 -961 2951 -1258 4498 -806 580 170 1127
443 1614 806 387 289 758 660 1047 1047 774 1039 1127 2340 981 3626 -102 905
-439 1758 -981 2486 -289 387 -660 758 -1047 1047 -728 542 -1583 880 -2486
981 -286 32 -559 40 -845 25z m-503 -2890 c849 -408 1572 -755 1608 -771 l65
-29 762 365 c569 274 771 366 798 366 44 0 86 -21 114 -56 l21 -27 0 -1967 0
-1967 -22 -33 c-20 -29 -218 -127 -1582 -781 -1754 -843 -1621 -787 -1697
-710 l-39 39 0 755 0 756 -21 11 c-11 7 -386 165 -832 351 -447 187 -822 347
-835 355 -13 8 -32 29 -42 47 -20 31 -20 67 -20 1982 0 1838 1 1952 18 1983 9
18 31 41 47 52 69 45 -7 78 1657 -721z"/>
<path d="M2900 5962 l0 -1759 719 -302 c396 -165 726 -304 735 -307 14 -6 16
28 16 348 l0 355 -442 178 c-538 216 -523 209 -548 250 -25 40 -26 106 -3 145
20 34 81 70 118 70 14 0 215 -76 446 -169 273 -110 422 -165 425 -157 2 6 3
137 2 290 l-3 280 -460 186 c-253 102 -470 192 -483 199 -82 45 -81 181 1 231
61 38 87 31 522 -145 224 -91 412 -165 417 -165 4 0 8 49 8 109 0 105 1 111
27 142 18 21 69 52 142 88 86 41 111 57 100 64 -8 5 -289 134 -624 286 -541
246 -613 281 -632 311 -30 43 -31 110 -3 155 21 33 80 65 122 65 11 0 347
-149 745 -330 398 -182 728 -331 732 -333 10 -2 700 326 701 333 0 3 -609 297
-1353 654 -743 357 -1369 658 -1389 668 l-38 18 0 -1758z"/>
<path d="M6660 6539 c-421 -203 -1047 -504 -1392 -670 l-628 -302 0 -1759 c0
-1671 1 -1759 18 -1754 9 3 638 305 1397 670 l1380 663 3 1754 c1 964 -1 1756
-5 1759 -5 4 -352 -159 -773 -361z m256 -704 c14 -9 35 -37 45 -61 25 -54 17
-105 -20 -145 -17 -18 -301 -161 -836 -420 -775 -375 -813 -393 -868 -393 -55
-1 -61 1 -92 36 -58 63 -59 134 -2 189 21 20 315 168 847 425 748 362 818 394
857 391 24 -3 54 -12 69 -22z m14 -902 c50 -51 59 -99 29 -159 -21 -43 -28
-49 -163 -114 -77 -37 -449 -218 -826 -400 -759 -368 -741 -362 -814 -307 -66
51 -72 150 -12 206 14 13 391 201 838 417 919 445 876 429 948 357z m-30 -858
c73 -38 98 -142 49 -205 -19 -26 -179 -107 -849 -431 -573 -277 -835 -399
-858 -399 -121 0 -187 157 -99 237 12 11 391 199 842 417 569 275 830 396 853
396 18 0 46 -7 62 -15z"/>
</g>
</svg>
